<svg width="34" height="34" viewBox="0 0 34 34" fill="none" xmlns="http://www.w3.org/2000/svg">
<path d="M10.6667 9.89474H6L17.0833 26L18.25 21.0789L10.6667 9.89474Z" fill="white"/>
<path d="M27 11.2368L22.9167 17.5L20.5833 10.3421L24.6667 9L27 11.2368Z" fill="white"/>
<path d="M33 17C33 25.8366 25.8366 33 17 33C8.16344 33 1 25.8366 1 17C1 8.16344 8.16344 1 17 1C25.8366 1 33 8.16344 33 17Z" stroke="black" stroke-opacity="0.4"/>
<path d="M10.6667 9.89474H6L17.0833 26L18.25 21.0789L10.6667 9.89474Z" stroke="black" stroke-opacity="0.4"/>
<path d="M27 11.2368L22.9167 17.5L20.5833 10.3421L24.6667 9L27 11.2368Z" stroke="black" stroke-opacity="0.4"/>
</svg>
